<svg xmlns="http://www.w3.org/2000/svg" viewBox="0 0 384 512"><path d="M32.247 40.013c2.884.196 6.755 2.568 6.755 2.568l125.097 76.708c12.236 7.504 15.067 18.074 15.067 18.074 12.156 45.64 10.837 40.95 12.156 45.64l11.79 43.992 20.369 76.024c.104.39.159.753.23 1.128 1.841 9.765-7.471 14.122-7.471 14.122l-23.56 10.953L81.571 380.86c-10.075 4.681-12.905-5.884-12.905-5.884L24.489 210.102c-2.833-10.569 7.241-15.25 7.241-15.25l33.653-15.638.005-.003L29.598 45.65c-1.238-4.624.407-5.788 2.65-5.636zm275.111 90.152c6.104.105 7.976 7.083 7.976 7.083L359.51 302.12c2.833 10.568-7.24 15.25-7.238 15.25l-33.605 15.62c35.73 133.35 10.771 40.201 35.734 133.36 2.831 10.57-9.401 3.066-9.401 3.066l-125.097-76.708c-12.236-7.503-15.068-18.073-15.068-18.073l-.14-.557-9.066-33.925 33.745-15.777s8.389-5.712 7.468-14.123c-.071-.372-.123-.74-.227-1.128l-19.59-73.44.027.019-15.485-57.761 100.86-46.582c1.888-.878 3.52-1.22 4.93-1.196z"/></svg>