<svg xmlns="http://www.w3.org/2000/svg" viewBox="0 0 384 512"><path d="M343.759 106.662c7.339.942 6.562 5.354 6.562 10.63V245.96c0 5.959-4.875 10.834-10.834 10.834h-3.989c-5.959 0-10.834-4.876-10.834-10.834V117.293c0-5.29-.77-9.706 6.624-10.636V89.54l-56.907 46.672c.657 1.219 1.281 2 1.875 3.022 5 8.853 7.548 19.862 7.548 33.314 0 10.311-1.719 19.578-5.204 27.757-3.469 8.18-7.688 14.861-12.61 20.007-4.92 5.166-9.859 9.884-14.796 14.134-4.936 4.258-9.156 8.697-12.61 13.306-3.481 4.594-5.216 9.344-5.216 14.266 0 4.93 2.25 9.937 6.735 14.983 4.468 5.062 9.967 9.968 16.468 14.813 6.516 4.813 13.015 10.156 19.516 15.968 6.515 5.803 11.983 13.272 16.452 22.344 4.501 9.103 6.75 19.125 6.75 30.14 0 14.532-3.704 27.657-11.094 39.337-7.407 11.631-17.062 20.914-28.922 27.718-11.891 6.852-24.609 12.008-38.171 15.493-13.593 3.453-27.079 5.187-40.547 5.187-8.501 0-17.078-.656-25.706-1.998-8.655-1.345-17.327-3.72-26.06-7.063-8.75-3.368-16.502-7.5-23.22-12.47-6.734-4.912-12.156-11.257-16.312-18.983-4.157-7.726-6.219-16.414-6.219-26.062 0-11.446 3.187-22.063 9.577-31.962 6.39-9.827 14.86-18.032 25.39-24.531 18.377-11.43 47.204-18.493 86.437-21.163-8.967-11.211-13.467-21.767-13.467-31.642 0-5.62 1.468-11.642 4.375-18.143a104.17 104.17 0 0 1-14.438 1.025c-21.075 0-38.874-6.85-53.327-20.648-14.452-13.774-21.672-31.016-21.672-51.861 0-2.179.064-4.1.22-6.226H20.476L149.633 64h213.89L343.76 79.431v27.231zm-107.361 222.48h.001c-1.125-.79-4.047-2.922-8.751-6.385-4.702-3.493-7.28-5.344-7.734-5.562-2.47-.446-5.936-.697-10.405-.697-9.641 0-19.127.853-28.438 2.555-9.313 1.656-18.5 4.452-27.562 8.399-9.094 3.923-16.44 9.689-22.032 17.315-5.626 7.616-8.423 16.586-8.423 26.905 0 9.836 2.469 18.61 7.407 26.25 4.923 7.594 11.422 13.54 19.5 17.797 8.08 4.266 16.547 7.486 25.391 9.602 8.86 2.102 17.875 3.195 27.063 3.195 18.17 0 33.812-4.093 46.937-12.273 13.093-8.18 19.656-20.812 19.656-37.86a38.24 38.24 0 0 0-1.485-10.561c-1.03-3.486-2.046-6.469-3.046-8.947-1-2.43-2.906-5.359-5.719-8.733a443.023 443.023 0 0 0-6.376-7.548c-1.468-1.719-4.215-4.17-8.265-7.414-4.015-3.258-6.577-5.288-7.719-6.038zm-3.358-100.579h.001c7.374-8.845 11.076-20.008 11.076-33.455 0-11.454-1.951-23.444-5.873-35.984-3.907-12.554-10.423-23.882-19.516-33.967-9.064-10.12-19.563-15.158-31.438-15.158-13.438 0-23.751 4.835-30.937 14.486-7.186 9.624-10.782 21.281-10.782 34.975 0 11.665 1.97 23.54 5.907 35.648 3.92 12.103 10.343 22.908 19.343 32.43 8.968 9.549 19.407 14.313 31.266 14.313 13.219 0 23.547-4.429 30.953-13.288z"/></svg>